<svg width="1703" height="528" viewBox="0 0 1703 528" fill="none" xmlns="http://www.w3.org/2000/svg">
<g clip-path="url(#clip0_3_96)">
<path d="M1125.97 155.227V315.041C1125.97 331.482 1126.71 350.98 1137.43 365.509C1145.92 376.597 1160.33 384.626 1178.43 384.626C1196.53 384.626 1210.94 376.597 1219.44 365.509C1230.15 350.98 1230.89 331.864 1230.89 315.041V155.227H1293.69V316.953C1293.69 352.892 1289.99 382.714 1264.87 408.33C1240.49 433.564 1207.25 442.74 1177.32 442.74C1147.4 442.74 1116.37 433.946 1091.99 408.33C1066.87 382.332 1063.17 352.51 1063.17 316.953V155.227H1125.97ZM1703 310.453H1509.8C1510.9 330.335 1519.4 352.892 1532.7 366.656C1547.48 381.949 1565.21 384.626 1580.72 384.626C1596.24 384.626 1610.65 380.802 1623.58 370.862C1634.29 362.45 1642.79 350.98 1648.7 340.275L1701.15 370.862C1689.7 391.89 1673.08 410.624 1655.72 421.712C1633.92 436.24 1605.11 442.74 1576.29 442.74C1547.48 442.74 1510.9 433.564 1485.42 406.801C1459.93 380.42 1445.89 341.804 1445.89 300.13C1445.89 258.456 1460.66 215.253 1488.74 185.431C1511.27 162.109 1540.46 147.58 1578.88 147.58C1617.3 147.58 1649.44 166.697 1665.32 183.902C1700.04 220.988 1703 272.602 1703 302.042V310.071V310.453ZM1639.09 257.309C1636.51 242.016 1629.49 228.634 1619.88 219.458C1611.39 211.429 1598.09 203.4 1577.77 203.4C1557.45 203.4 1541.94 212.576 1533.44 221.37C1524.57 230.164 1517.55 243.163 1514.23 257.309H1639.09ZM637.609 88.7009V152.168H700.41V88.7009H637.609ZM637.609 355.568V468.356H603.254L581.089 528H700.41V165.55L637.609 355.568ZM219.432 13.3816V194.989C202.07 162.491 169.561 141.08 127.079 141.08C49.1321 141.08 0 198.43 0 295.925C0 393.419 48.7627 449.622 126.709 449.622C204.656 449.622 206.872 425.153 223.496 390.361L226.82 443.887H280.755V13.3816H219.432ZM140.377 398.39C91.2454 398.39 61.3228 359.774 61.3228 295.16C61.3228 230.546 91.2454 192.695 140.377 192.695C189.51 192.695 219.432 230.164 219.432 291.719V298.983C219.432 361.303 188.401 398.772 140.377 398.772V398.39ZM1346.88 145.286V333.011L1406.73 514.236V0H1361.66H1346.88V145.286ZM572.223 310.453H379.019C380.127 330.335 388.624 352.892 401.923 366.656C416.699 381.949 434.431 384.626 449.947 384.626C465.462 384.626 479.869 380.802 492.799 370.862C503.512 362.068 512.008 350.98 517.919 340.275L570.376 370.862C558.924 391.89 542.3 410.624 524.938 421.712C503.142 436.24 474.328 442.74 445.514 442.74C416.699 442.74 380.127 433.564 354.638 406.801C329.148 380.42 315.11 341.804 315.11 300.13C315.11 258.456 329.887 215.253 357.963 185.431C380.497 162.109 409.68 147.58 448.1 147.58C486.519 147.58 518.658 166.697 534.543 183.902C569.268 220.988 572.223 272.602 572.223 302.042V310.071V310.453ZM507.945 257.309C505.359 242.016 498.34 228.634 488.735 219.458C480.239 211.429 466.94 203.4 446.622 203.4C426.304 203.4 410.789 212.576 402.292 221.37C393.426 230.164 386.407 243.163 383.083 257.309H507.945ZM1063.17 373.156L951.242 420.947C951.242 420.947 951.611 420.947 951.981 420.947C963.063 420.947 973.407 416.741 981.165 409.095C986.706 403.742 990.4 396.86 992.247 389.596C1014.78 385.773 1032.14 365.509 1032.14 342.187C1032.14 318.865 1029.19 322.306 1023.28 314.277C1031.4 305.483 1036.21 293.631 1036.21 281.396C1036.21 269.161 1029.56 253.104 1018.11 243.928C1019.21 240.487 1019.58 236.663 1019.58 232.84C1019.58 212.576 1005.55 195.371 985.967 191.93C984.859 183.902 981.165 176.637 975.254 170.902C970.452 166.314 964.541 162.873 958.261 161.344C954.197 142.61 937.204 128.846 917.995 128.846C898.785 128.846 899.154 132.287 891.766 138.404V128.846H827.858V163.256H779.095V194.607H771.337C751.389 194.607 729.593 211.429 729.593 233.605V307.395C729.593 324.217 739.568 338.746 754.713 344.098C753.605 346.775 752.866 349.833 752.866 352.892V363.597C752.866 382.714 768.012 398.39 786.483 398.39H789.808C789.808 399.537 789.808 400.301 789.808 401.448V412.153C789.808 431.27 804.954 446.946 823.425 446.946H872.926C878.837 446.946 884.747 444.652 889.18 440.446C896.199 447.328 905.804 451.151 915.778 451.151C933.141 451.151 947.917 439.681 952.72 422.859L1063.17 373.156ZM887.333 436.24C883.27 440.446 877.729 442.74 871.818 442.74H822.316C804.954 442.74 790.916 428.211 790.916 410.242V399.537C790.916 398.39 790.916 396.86 791.285 395.713V394.566H785.744C768.382 394.566 754.344 380.038 754.344 362.068V351.363C754.344 348.304 755.083 345.245 756.561 342.569L757.299 341.422H756.191C741.415 336.452 731.44 322.306 731.44 306.248V232.458C731.44 211.429 752.497 195.754 771.337 195.754H780.942V164.403H829.705V129.993H889.55V141.845L891.027 140.316C898.416 133.434 907.651 129.993 917.625 129.993C936.096 129.993 952.35 143.374 956.044 161.726V162.491H956.783C963.063 164.02 968.974 167.079 973.407 171.667C978.948 177.402 982.642 184.284 983.381 192.313V193.077H984.12C1002.96 196.518 1016.63 212.959 1016.63 232.458C1016.63 251.957 1016.26 240.104 1015.15 243.545V244.31V244.692C1026.6 253.486 1032.88 266.867 1032.88 281.014C1032.88 295.16 1028.45 304.336 1019.95 313.13L1019.21 313.894V314.659C1025.49 322.688 1028.82 332.246 1028.82 341.804C1028.82 364.362 1012.2 383.861 990.03 387.302H989.292V388.067C987.814 395.331 984.12 401.831 978.579 407.183C970.821 414.83 960.477 419.035 949.764 418.653H949.025V419.418C944.962 435.476 930.555 446.946 913.931 446.946C897.307 446.946 895.091 443.122 888.072 436.24L887.333 435.476L886.594 436.24H887.333ZM778.356 209.135V277.19H748.433V232.458C748.433 219.458 758.777 209.135 770.968 209.135H778.356ZM827.858 177.784V277.19H793.871V177.784H827.858ZM876.251 143.757V260.368C876.251 269.926 868.862 277.573 859.627 277.573H841.895V143.757H875.881H876.251ZM876.251 356.333V371.626C876.251 376.979 872.187 381.185 867.015 381.185H785.744C775.401 381.185 767.274 372.773 767.274 362.068V351.363C767.274 348.686 769.49 346.775 772.076 346.775H867.385C872.557 346.775 876.62 350.98 876.62 356.333H876.251ZM851.131 329.57H766.535C754.344 329.57 744 319.247 744 306.248V294.013H848.545C851.5 294.013 853.717 296.689 852.978 299.748C852.608 302.424 852.239 304.718 852.239 307.395C852.239 312.747 853.347 318.1 855.194 322.688C856.302 325.747 854.086 329.188 850.761 329.188L851.131 329.57ZM881.053 404.507V419.8C881.053 425.153 876.99 429.358 871.818 429.358H822.316C811.973 429.358 803.846 420.947 803.846 410.242V399.537C803.846 396.86 806.062 394.949 808.648 394.949H872.187C877.359 394.949 881.423 399.154 881.423 404.507H881.053ZM987.814 323.453C985.228 323.453 983.381 321.541 983.381 318.865C983.381 316.188 985.228 314.277 987.814 314.277C1005.92 314.277 1021.06 299.748 1021.06 281.396C1021.06 263.044 1006.28 248.516 987.814 248.516C969.343 248.516 983.381 246.604 983.381 243.928C983.381 241.251 985.228 239.34 987.814 239.34C992.986 239.34 998.158 240.104 1002.59 242.016C1003.7 238.957 1004.44 235.899 1004.44 232.458C1004.44 218.311 992.986 206.459 978.579 206.077C977.101 210.665 974.515 215.253 970.821 218.694C970.082 219.458 968.974 219.841 967.866 219.841C966.757 219.841 965.649 219.458 964.541 218.311C962.694 216.4 962.694 213.723 964.541 211.812C968.604 207.606 971.19 202.253 971.19 196.518C971.19 190.783 968.974 185.049 964.541 181.225C956.044 172.432 941.637 172.432 933.141 181.225C931.294 183.137 928.708 182.755 926.861 181.225C925.013 179.314 925.383 176.637 926.861 174.726C931.663 170.138 937.574 167.079 943.854 166.314C942.007 153.697 930.924 143.757 917.625 143.757C904.326 143.757 891.027 155.609 891.027 170.138V243.928H944.223V216.782C939.79 215.635 936.465 211.429 936.465 206.459C936.465 201.489 940.898 195.754 946.809 195.754C952.72 195.754 957.153 200.342 957.153 206.459C957.153 212.576 953.828 215.635 949.395 216.782V248.898H891.397V280.631H979.317C980.426 276.043 984.489 272.602 989.292 272.602C994.094 272.602 999.635 277.573 999.635 283.308C999.635 289.043 995.202 294.013 989.292 294.013C983.381 294.013 980.426 290.572 979.317 285.984H891.397V320.394H949.395V352.892C953.828 354.039 957.153 358.245 957.153 363.215C957.153 368.185 952.35 373.92 946.809 373.92C941.268 373.92 936.465 369.332 936.465 363.215C936.465 357.098 939.79 354.039 944.223 352.892V325.364H891.027V410.242C891.027 422.859 901.371 433.182 914.301 433.182C927.23 433.182 936.835 423.241 937.574 411.007C933.879 409.095 930.185 406.801 926.861 403.742C925.013 401.831 925.013 399.154 926.861 397.243C928.708 395.331 931.294 395.331 933.141 397.243C943.484 407.566 960.108 407.566 970.451 397.243C975.254 392.272 978.209 385.773 978.209 378.891C978.209 372.009 975.623 365.509 970.451 360.539C968.604 358.627 968.604 355.951 970.451 354.039C972.298 352.127 974.884 352.127 976.732 354.039C982.273 359.392 985.598 366.656 986.706 373.92C1003.7 372.391 1016.63 358.627 1016.63 341.422C1016.63 324.217 1012.93 323.835 1006.65 318.1C1001.11 321.159 994.463 322.688 987.445 322.688L987.814 323.453Z" fill="#082B31"/>
</g>
<defs>
<clipPath id="clip0_3_96">
<rect width="1703" height="528" fill="white"/>
</clipPath>
</defs>
</svg>
